<?xml version="1.0" encoding="utf-8"?>
<!-- Generator: Adobe Illustrator 25.2.1, SVG Export Plug-In . SVG Version: 6.00 Build 0)  -->
<svg version="1.1" id="Camada_1" xmlns="http://www.w3.org/2000/svg" xmlns:xlink="http://www.w3.org/1999/xlink" x="0px" y="0px"
	 viewBox="0 0 519.68 518.97" style="enable-background:new 0 0 519.68 518.97;" xml:space="preserve">
<style type="text/css">
	.st0{fill:#2D93B9;}
	.st1{fill:#27A2DA;}
	.st2{fill:#3A556A;}
	.st3{fill:#44C3A0;}
	.st4{fill:#FBD362;}
	.st5{fill:#FDFEFE;}
</style>
<g>
	<g>
		<path class="st0" d="M100.91,3.23c0.33,0,0.67,0,1,0c0,169.56,0,339.12,0,508.68c2.15-0.75,3.13-1.63,3.87-2.69
			c34.68-49.48,69.29-99,104.03-148.43c6.79-9.66,13.04-19.71,20.69-28.75c14.26,18.68,29.05,36.92,46.07,53.18
			c18.41,17.57,38.11,33.34,62.5,42.05c11.22,4,22.45,6.64,33.46-0.78c5.52-3.72,11.06-7.4,16.71-10.92
			c2.31-1.44,2.17-2.64,0.77-4.69c-17.95-26.25-35.84-52.53-53.66-78.86c-1.41-2.08-2.9-2.92-5.34-2.54
			c-5.01,0.79-10.02,0.18-14.86-0.93c-24.19-5.55-41.96-20-55.34-40.41c17.91-25.65,35.78-51.32,53.73-76.94
			c26.26-37.47,52.57-74.9,78.86-112.34c20.75-29.55,41.5-59.09,62.25-88.63c4.17,3.33,6,7.91,6.19,12.99
			c0.28,7.62,0.12,15.25,0.15,22.87c-0.09,2.16-0.27,4.32-0.27,6.48c0.02,78.58,0.06,157.17,0.11,235.75c0,1.99,0.18,3.98,0.28,5.98
			c0,64.96-0.02,129.91,0.03,194.87c0,6.47-0.77,12.53-5.02,17.83c-3.28,4.09-7.88,5.87-12.3,8.06c-114.63,0-229.26,0-343.9,0
			C100.91,344.46,100.91,173.84,100.91,3.23z M405.26,403.1c5.38-4.59,10.61-8.96,15.74-13.46c3.54-3.11,4-6.92,1.41-10.75
			c-15.11-22.34-30.27-44.65-45.54-66.88c-3.14-4.58-6.95-5.11-11.64-2.03c-4.17,2.74-8.04,5.97-12.29,8.56
			c-3.23,1.97-3.26,3.5-1.15,6.56c17.1,24.81,34,49.76,50.97,74.66C403.5,400.86,404.33,401.88,405.26,403.1z"/>
		<path class="st1" d="M230.5,332.04c-7.65,9.04-13.9,19.1-20.69,28.75c-34.75,49.43-69.36,98.95-104.03,148.43
			c-0.74,1.05-1.72,1.94-3.87,2.69c0-169.56,0-339.12,0-508.68c114.3,0,228.6,0,342.9,0c3.65,2.27,8.38,2.88,10.84,7
			c-20.75,29.54-41.5,59.09-62.25,88.63c-26.29,37.44-52.61,74.87-78.86,112.34c-17.95,25.62-35.82,51.29-53.73,76.94
			c-6.17-7.56-10.31-16.28-13.66-25.31c-7.58-20.43-10.45-41.23-3.36-62.48c0.7-2.11,0.44-3.7-0.81-5.53
			c-18.04-26.39-36.02-52.81-53.95-79.27c-1.49-2.2-2.66-3.03-5.09-1.24c-5.21,3.86-10.7,7.36-15.86,11.28
			c-6.79,5.15-11.1,11.62-11.2,20.65c-0.1,10.01-0.04,19.96,1.57,29.87c5.48,33.59,18.66,64.4,34.06,94.4
			C203.55,292.01,216.69,312.24,230.5,332.04z M223.75,93.34c-0.35,0.09-1.05,0.14-1.62,0.43c-6.25,3.1-12.47,6.26-18.74,9.34
			c-1.88,0.93-1.2,1.99-0.4,3.16c1.97,2.88,3.93,5.78,5.9,8.66c15.16,22.28,30.41,44.51,45.41,66.89c2.33,3.48,4.06,3.85,7.3,1.37
			c3.69-2.82,7.82-5.05,11.65-7.7c4.93-3.41,5.9-7.04,2.63-11.89c-14.97-22.21-30.09-44.32-45.17-66.45
			C229.14,94.83,226.95,93.45,223.75,93.34z"/>
		<path class="st2" d="M100.91,3.23c0,170.61,0,341.22,0,511.83c-26.66,0-53.32,0-79.98,0c-8.19-3.14-13.85-8.81-16.99-16.99
			c0-159.28,0-318.56,0-477.84c3.35-8.47,9.03-14.47,17.99-16.99C48.26,3.23,74.59,3.23,100.91,3.23z"/>
		<path class="st3" d="M515.78,287.14c-3.94,6.25-9.8,7.37-16.75,7.15c-12.3-0.38-24.62-0.03-36.93,0.02
			c-0.09-1.99-0.27-3.99-0.27-5.98c-0.05-78.58-0.09-157.17-0.11-235.75c0-2.16,0.17-4.32,0.27-6.48c0.21,0.01,0.39,0.07,0.57,0.18
			c-0.06,40.11-0.1,80.22-0.23,120.32c-0.01,3.45,1.84,3.6,4.44,3.59c13.15-0.07,26.3-0.04,39.45-0.05
			c4.55,1.05,7.25,4.33,9.58,8.03C515.78,214.5,515.78,250.82,515.78,287.14z"/>
		<path class="st4" d="M506.2,170.14c-13.15,0.01-26.3-0.02-39.45,0.05c-2.6,0.01-4.45-0.14-4.44-3.59
			c0.14-40.11,0.17-80.22,0.23-120.32c13.09-0.09,26.18-0.04,39.27-0.34c7.02-0.16,11.77,2.49,13.97,9.28c0,34.99,0,69.98,0,104.97
			C514.63,165.46,511.28,168.63,506.2,170.14z"/>
		<path class="st5" d="M21.94,3.23C12.97,5.76,7.29,11.76,3.94,20.23c0-5,0.1-10-0.05-14.99C3.83,3.49,4.2,3.13,5.94,3.18
			C11.27,3.33,16.6,3.23,21.94,3.23z"/>
		<path class="st5" d="M3.94,498.07c3.14,8.19,8.81,13.85,16.99,16.99c-5,0-10-0.1-14.99,0.05c-1.74,0.05-2.11-0.31-2.06-2.06
			C4.04,508.07,3.94,503.07,3.94,498.07z"/>
		<path class="st5" d="M230.5,332.04c-13.81-19.81-26.95-40.04-37.99-61.54c-15.4-29.99-28.58-60.81-34.06-94.4
			c-1.62-9.91-1.67-19.86-1.57-29.87c0.09-9.03,4.41-15.5,11.2-20.65c5.16-3.92,10.65-7.42,15.86-11.28c2.43-1.8,3.6-0.96,5.09,1.24
			c17.92,26.46,35.91,52.88,53.95,79.27c1.25,1.83,1.51,3.43,0.81,5.53c-7.09,21.25-4.22,42.05,3.36,62.48
			c3.35,9.03,7.49,17.75,13.66,25.31c13.38,20.41,31.15,34.86,55.34,40.41c4.85,1.11,9.86,1.71,14.86,0.93
			c2.45-0.38,3.93,0.46,5.34,2.54c17.82,26.33,35.71,52.62,53.66,78.86c1.4,2.05,1.54,3.25-0.77,4.69
			c-5.64,3.52-11.19,7.2-16.71,10.92c-11,7.42-22.24,4.79-33.46,0.78c-24.39-8.71-44.09-24.48-62.5-42.05
			C259.54,368.96,244.76,350.72,230.5,332.04z"/>
		<path class="st5" d="M405.26,403.1c-0.93-1.23-1.76-2.24-2.5-3.32c-16.97-24.9-33.87-49.85-50.97-74.66
			c-2.11-3.06-2.07-4.59,1.15-6.56c4.25-2.6,8.12-5.82,12.29-8.56c4.69-3.09,8.5-2.55,11.64,2.03
			c15.27,22.23,30.42,44.54,45.54,66.88c2.59,3.82,2.13,7.64-1.41,10.75C415.87,394.14,410.64,398.52,405.26,403.1z"/>
		<path class="st5" d="M223.75,93.34c3.2,0.11,5.38,1.49,6.97,3.82c15.08,22.13,30.2,44.24,45.17,66.45
			c3.27,4.85,2.3,8.48-2.63,11.89c-3.83,2.65-7.96,4.88-11.65,7.7c-3.24,2.48-4.97,2.11-7.3-1.37c-15-22.39-30.24-44.61-45.41-66.89
			c-1.97-2.89-3.93-5.78-5.9-8.66c-0.8-1.18-1.49-2.24,0.4-3.16c6.26-3.08,12.48-6.24,18.74-9.34
			C222.71,93.48,223.4,93.43,223.75,93.34z"/>
	</g>
</g>
</svg>
