<?xml version="1.0" encoding="utf-8"?>
<!-- Generator: Adobe Illustrator 25.2.1, SVG Export Plug-In . SVG Version: 6.00 Build 0)  -->
<svg version="1.1" id="Camada_1" xmlns="http://www.w3.org/2000/svg" xmlns:xlink="http://www.w3.org/1999/xlink" x="0px" y="0px"
	 viewBox="0 0 519.92 518.02" style="enable-background:new 0 0 519.92 518.02;" xml:space="preserve">
<style type="text/css">
	.st0{fill:#2B3E50;}
	.st1{fill:#3C95CF;}
	.st2{fill:#4B6980;}
	.st3{fill:#FDD565;}
	.st4{fill:#E4E2F1;}
</style>
<g>
	<g>
		<path class="st0" d="M344.62,515.55c-56.65,0-113.29,0-169.94,0c-7.61-5.35-8.49-8.28-5.12-17.16
			c4.89-12.87,9.82-25.73,14.71-38.6c5.18-13.61,10.33-27.23,15.7-41.39c-2.39,0-4.19,0-5.99,0c-53.24,0-106.47,0.02-159.71-0.01
			c-13.8-0.01-23.56-6.58-28.75-19.06c-0.41-0.98-0.33-2.4-1.79-2.74c0-123.63,0-247.25,0-370.88C6.96,19.71,9.7,13.46,15.55,9.25
			c3.2-2.31,7.19-2.97,10.19-5.53c155.61,0,311.22,0,466.83,0c6.63,2.72,13.01,5.72,17.43,11.82c2.5,3.45,3.51,7.55,5.56,11.17
			c0,123.29,0,246.59,0,369.88c-0.36,0.29-0.92,0.51-1.05,0.89c-5.59,15.55-17.14,21.11-33.03,21.03
			c-51.97-0.27-103.95-0.1-155.92-0.1c-1.89,0-3.78,0-6.17,0c0.84,2.17,1.37,3.55,1.9,4.92c9.48,25.01,18.97,50.02,28.45,75.03
			C353.11,507.29,352.24,510.18,344.62,515.55z M259.8,331.76c76.46,0,152.92-0.04,229.38,0.1c4.75,0.01,6.17-1.21,6.17-6.07
			c-0.14-96.29-0.1-192.57-0.11-288.86c0-10.37-2.59-12.91-13.11-12.91c-148.26-0.01-296.51-0.01-444.77,0
			c-10.85,0-13.3,2.43-13.3,13.22c-0.01,96.12,0.04,192.24-0.13,288.36c-0.01,5.24,1.57,6.29,6.49,6.28
			C106.88,331.72,183.34,331.76,259.8,331.76z M259.88,352.6c-75.63,0-151.27,0-226.9,0c-1.5,0-3,0.08-4.5-0.01
			c-2.75-0.15-3.89,1.07-3.87,3.84c0.07,11.16,0,22.32,0.06,33.49c0.02,4.64,2.88,6.88,7.1,7.6c1.62,0.28,3.32,0.12,4.99,0.12
			c148.6,0,297.21,0,445.81,0c1.17,0,2.33,0.03,3.5-0.02c5.75-0.27,8.53-3,8.58-8.73c0.08-9.83,0.03-19.66,0.03-29.49
			c0-6.78-0.01-6.79-6.88-6.79C411.82,352.6,335.85,352.6,259.88,352.6z M259.61,494.66c20.3,0,40.61,0.02,60.91-0.01
			c5.33-0.01,5.68-0.5,3.84-5.37c-8.35-22.09-16.78-44.16-25.07-66.27c-1.22-3.27-3.03-4.54-6.64-4.52
			c-21.97,0.16-43.94,0.15-65.91,0.01c-3.56-0.02-5.28,1.12-6.54,4.5c-8.29,22.11-16.82,44.14-25.24,66.2
			c-1.87,4.91-1.52,5.43,3.73,5.44C219,494.68,239.31,494.66,259.61,494.66z"/>
		<path class="st1" d="M259.8,331.76c-76.46,0-152.92-0.05-229.38,0.11c-4.91,0.01-6.5-1.04-6.49-6.28
			c0.17-96.12,0.12-192.24,0.13-288.36c0-10.79,2.45-13.22,13.3-13.22c148.26-0.01,296.51-0.01,444.77,0
			c10.52,0,13.11,2.54,13.11,12.91c0.01,96.29-0.03,192.57,0.11,288.86c0.01,4.87-1.42,6.08-6.17,6.07
			C412.72,331.72,336.26,331.76,259.8,331.76z M192.89,77.74c-4.78-0.21-7.26,1.29-9.47,3.51c-6.81,6.85-13.61,13.71-20.5,20.48
			c-3.74,3.68-4.67,7.8-2.89,12.74c2.71,7.51,5.12,15.14,7.93,22.61c1.08,2.86,0.35,4.14-2.3,5.35c-6.96,3.18-13.74,6.77-20.72,9.92
			c-5.14,2.33-7.67,5.91-7.56,11.66c0.19,9.49,0.15,18.99,0.01,28.48c-0.08,5.29,2.15,8.84,6.9,11.07
			c7.08,3.33,14.04,6.91,21.15,10.17c2.82,1.29,3.61,2.67,2.44,5.74c-2.79,7.3-5.11,14.78-7.81,22.12c-1.9,5.16-0.77,9.36,3.1,13.14
			c6.67,6.52,13.27,13.11,19.78,19.79c3.79,3.9,7.99,4.99,13.14,3.1c7.34-2.69,14.8-5.07,22.13-7.8c2.88-1.07,4.39-0.62,5.7,2.35
			c3.17,7.15,6.77,14.1,10.11,21.18c2.3,4.87,5.92,7.33,11.42,7.26c9.33-0.12,18.65-0.12,27.98,0c5.65,0.07,9.47-2.33,11.84-7.44
			c3.15-6.8,6.62-13.45,9.64-20.3c1.48-3.36,3-4.41,6.71-2.9c6.93,2.81,14.13,4.95,21.15,7.56c5.31,1.97,9.66,0.96,13.6-3.1
			c6.26-6.45,12.56-12.88,19.1-19.06c4.46-4.22,5.39-8.86,3.37-14.48c-2.59-7.2-4.9-14.51-7.59-21.67c-1.07-2.85-0.32-4.2,2.31-5.41
			c7.11-3.26,14.08-6.82,21.18-10.12c4.94-2.29,7.28-5.9,7.19-11.41c-0.16-9.32-0.21-18.66,0.02-27.98
			c0.15-5.96-2.44-9.68-7.75-12.09c-6.82-3.1-13.44-6.63-20.27-9.7c-3.12-1.41-3.68-3.04-2.47-6.2c2.73-7.15,5.11-14.43,7.59-21.67
			c1.71-5.01,0.96-9.37-3.02-13.22c-6.71-6.48-13.28-13.1-19.78-19.78c-3.81-3.91-8.04-4.9-13.16-3.03
			c-7.5,2.74-15.1,5.21-22.6,7.95c-2.51,0.92-3.82,0.45-4.98-2.09c-3.39-7.42-7.08-14.7-10.61-22.05
			c-2.08-4.32-5.46-6.65-10.26-6.68c-9.99-0.05-19.99-0.05-29.98,0c-4.79,0.02-8.22,2.29-10.28,6.63c-2,4.21-3.9,8.47-6.07,12.59
			c-2.15,4.08-2.78,10.29-6.72,11.69c-3.22,1.15-8.03-2.14-12.13-3.48c-1.27-0.41-2.49-0.95-3.77-1.31
			C200.88,80.52,196.38,78.17,192.89,77.74z"/>
		<path class="st2" d="M259.88,352.6c75.97,0,151.93,0,227.9,0c6.87,0,6.88,0.01,6.88,6.79c0,9.83,0.05,19.66-0.03,29.49
			c-0.04,5.73-2.82,8.46-8.58,8.73c-1.16,0.05-2.33,0.02-3.5,0.02c-148.6,0-297.21,0-445.81,0c-1.67,0-3.37,0.16-4.99-0.12
			c-4.22-0.72-7.08-2.95-7.1-7.6c-0.05-11.16,0.01-22.32-0.06-33.49c-0.02-2.77,1.12-3.99,3.87-3.84c1.49,0.08,3,0.01,4.5,0.01
			C108.62,352.6,184.25,352.6,259.88,352.6z"/>
		<path class="st2" d="M259.61,494.66c-20.3,0-40.61,0.02-60.91-0.01c-5.25-0.01-5.6-0.53-3.73-5.44
			c8.42-22.07,16.95-44.09,25.24-66.2c1.27-3.39,2.99-4.53,6.54-4.5c21.97,0.14,43.94,0.15,65.91-0.01
			c3.61-0.03,5.42,1.25,6.64,4.52c8.29,22.11,16.72,44.18,25.07,66.27c1.84,4.87,1.49,5.36-3.84,5.37
			C300.22,494.68,279.92,494.66,259.61,494.66z"/>
		<path class="st0" d="M192.89,77.74c3.49,0.44,7.98,2.78,12.77,4.14c1.28,0.36,2.51,0.9,3.77,1.31c4.1,1.34,8.91,4.63,12.13,3.48
			c3.94-1.41,4.56-7.62,6.72-11.69c2.18-4.12,4.08-8.38,6.07-12.59c2.06-4.35,5.49-6.61,10.28-6.63c9.99-0.05,19.99-0.05,29.98,0
			c4.8,0.02,8.18,2.36,10.26,6.68c3.54,7.35,7.22,14.63,10.61,22.05c1.16,2.54,2.47,3.01,4.98,2.09c7.5-2.74,15.1-5.21,22.6-7.95
			c5.13-1.87,9.35-0.88,13.16,3.03c6.51,6.68,13.08,13.31,19.78,19.78c3.99,3.85,4.74,8.21,3.02,13.22
			c-2.48,7.24-4.86,14.53-7.59,21.67c-1.21,3.16-0.64,4.8,2.47,6.2c6.83,3.08,13.45,6.61,20.27,9.7c5.3,2.41,7.89,6.12,7.75,12.09
			c-0.23,9.32-0.18,18.65-0.02,27.98c0.1,5.51-2.25,9.12-7.19,11.41c-7.1,3.29-14.07,6.85-21.18,10.12
			c-2.63,1.21-3.38,2.55-2.31,5.41c2.69,7.17,5,14.47,7.59,21.67c2.02,5.61,1.09,10.26-3.37,14.48c-6.53,6.17-12.84,12.6-19.1,19.06
			c-3.94,4.06-8.3,5.08-13.6,3.1c-7.02-2.61-14.22-4.75-21.15-7.56c-3.71-1.5-5.23-0.45-6.71,2.9c-3.02,6.85-6.49,13.5-9.64,20.3
			c-2.37,5.11-6.18,7.52-11.84,7.44c-9.33-0.12-18.65-0.12-27.98,0c-5.49,0.07-9.12-2.39-11.42-7.26
			c-3.34-7.08-6.93-14.03-10.11-21.18c-1.32-2.97-2.82-3.42-5.7-2.35c-7.33,2.73-14.78,5.11-22.13,7.8
			c-5.15,1.88-9.35,0.79-13.14-3.1c-6.51-6.68-13.11-13.27-19.78-19.79c-3.87-3.79-4.99-7.98-3.1-13.14
			c2.7-7.34,5.01-14.82,7.81-22.12c1.17-3.07,0.38-4.45-2.44-5.74c-7.11-3.26-14.07-6.84-21.15-10.17
			c-4.75-2.24-6.97-5.78-6.9-11.07c0.14-9.49,0.17-18.99-0.01-28.48c-0.11-5.75,2.42-9.33,7.56-11.66
			c6.97-3.16,13.75-6.74,20.72-9.92c2.65-1.21,3.37-2.49,2.3-5.35c-2.81-7.48-5.22-15.1-7.93-22.61c-1.78-4.94-0.85-9.06,2.89-12.74
			c6.89-6.77,13.69-13.63,20.5-20.48C185.63,79.03,188.11,77.53,192.89,77.74z M324.47,256.35c1.31,0.16,1.92-1.01,2.72-1.78
			c2.74-2.67,5.33-5.52,8.18-8.06c2.16-1.93,2.58-3.71,1.51-6.53c-3.11-8.24-5.9-16.6-8.69-24.95c-2.29-6.84-0.49-11.2,5.89-14.41
			c4.75-2.4,9.56-4.66,14.36-6.95c13.58-6.49,13.51-6.48,13.21-21.48c-0.05-2.55-0.9-3.79-3.18-4.84
			c-8.15-3.76-16.22-7.7-24.26-11.69c-6.44-3.19-8.29-7.58-6.08-14.35c1.65-5.05,3.5-10.04,5.25-15.07
			c4.95-14.26,4.9-14.21-6.04-24.57c-1.75-1.66-3.12-1.82-5.24-1.06c-8.76,3.14-17.54,6.21-26.38,9.13
			c-6.01,1.98-10.34,0.15-13.29-5.49c-2.61-5.01-5.81-9.91-7.31-15.26c-3.14-11.19-10.14-14.54-21-12.85
			c-2.86,0.44-4.38,1.21-5.56,3.79c-3.67,8.01-7.5,15.95-11.42,23.84c-3.07,6.17-7.49,7.99-14,5.87
			c-5.22-1.69-10.38-3.54-15.55-5.37c-13.91-4.92-13.84-4.87-24.09,5.78c-1.95,2.02-2.11,3.67-1.2,6.17
			c3.01,8.28,5.83,16.63,8.62,24.98c2.36,7.07,0.53,11.38-6.17,14.7c-4.77,2.36-9.37,5.37-14.41,6.8
			c-11.09,3.14-14.64,10.05-12.76,20.95c0.44,2.54,0.81,4.11,3.33,5.26c7.56,3.45,14.98,7.21,22.45,10.85
			c8.58,4.18,10.17,8.1,6.99,17.26c-1.53,4.4-3.1,8.78-4.62,13.18c-4.81,13.9-4.74,13.84,5.91,24.18c1.85,1.8,3.37,2.05,5.65,1.22
			c8.6-3.1,17.23-6.12,25.89-9.02c6.3-2.11,10.6-0.32,13.64,5.61c2.58,5.03,5.74,9.93,7.28,15.29c3.11,10.85,9.73,14.54,20.54,12.75
			c2.93-0.49,4.75-1.02,6.05-3.88c3.42-7.57,7.15-15.01,10.79-22.48c3.9-8,7.81-9.68,16.03-6.85c7.86,2.7,15.69,5.47,23.53,8.21
			C322.16,255.58,323.27,255.94,324.47,256.35z"/>
		<path class="st3" d="M324.47,256.35c-1.2-0.41-2.31-0.77-3.4-1.16c-7.84-2.74-15.68-5.5-23.53-8.21
			c-8.22-2.83-12.13-1.15-16.03,6.85c-3.64,7.47-7.37,14.91-10.79,22.48c-1.29,2.86-3.11,3.39-6.05,3.88
			c-10.81,1.79-17.43-1.9-20.54-12.75c-1.54-5.35-4.7-10.26-7.28-15.29c-3.04-5.93-7.33-7.72-13.64-5.61
			c-8.67,2.9-17.29,5.92-25.89,9.02c-2.29,0.82-3.8,0.57-5.65-1.22c-10.66-10.34-10.72-10.28-5.91-24.18
			c1.52-4.4,3.09-8.78,4.62-13.18c3.19-9.16,1.59-13.08-6.99-17.26c-7.47-3.64-14.89-7.4-22.45-10.85c-2.52-1.15-2.9-2.72-3.33-5.26
			c-1.88-10.9,1.66-17.81,12.76-20.95c5.04-1.43,9.65-4.43,14.41-6.8c6.7-3.32,8.53-7.63,6.17-14.7c-2.79-8.35-5.61-16.7-8.62-24.98
			c-0.91-2.5-0.74-4.15,1.2-6.17c10.25-10.65,10.18-10.7,24.09-5.78c5.17,1.83,10.34,3.68,15.55,5.37c6.51,2.12,10.93,0.3,14-5.87
			c3.92-7.89,7.75-15.83,11.42-23.84c1.18-2.59,2.71-3.35,5.56-3.79c10.85-1.69,17.86,1.66,21,12.85c1.5,5.35,4.7,10.25,7.31,15.26
			c2.94,5.64,7.28,7.47,13.29,5.49c8.84-2.91,17.62-5.99,26.38-9.13c2.12-0.76,3.49-0.6,5.24,1.06
			c10.94,10.36,10.99,10.31,6.04,24.57c-1.75,5.02-3.6,10.01-5.25,15.07c-2.21,6.77-0.36,11.16,6.08,14.35
			c8.04,3.99,16.11,7.93,24.26,11.69c2.28,1.05,3.13,2.29,3.18,4.84c0.3,15,0.37,15-13.21,21.48c-4.8,2.29-9.62,4.56-14.36,6.95
			c-6.38,3.22-8.18,7.57-5.89,14.41c2.79,8.35,5.59,16.71,8.69,24.95c1.06,2.81,0.65,4.6-1.51,6.53c-2.85,2.55-5.44,5.39-8.18,8.06
			C326.39,255.34,325.78,256.51,324.47,256.35z M306.02,178.62c0.36-25.37-20.09-46.56-45.29-46.95
			c-26.21-0.4-47.38,20.13-47.65,46.2c-0.26,25.15,20.43,46.35,45.65,46.75C284.58,225.04,305.66,204.54,306.02,178.62z"/>
		<path class="st0" d="M306.02,178.62c-0.37,25.92-21.44,46.42-47.29,46c-25.21-0.41-45.9-21.6-45.65-46.75
			c0.27-26.07,21.44-46.6,47.65-46.2C285.94,132.06,306.38,153.25,306.02,178.62z M285.64,177.98
			c-0.06-14.29-11.9-26.03-26.16-25.92c-14.37,0.11-25.9,11.79-25.86,26.18c0.05,14.36,11.76,25.97,26.11,25.88
			C274.11,204.03,285.69,192.34,285.64,177.98z"/>
		<path class="st4" d="M285.64,177.98c0.06,14.36-11.53,26.05-25.9,26.14c-14.36,0.09-26.07-11.51-26.11-25.88
			c-0.05-14.39,11.49-26.07,25.86-26.18C273.73,151.95,285.58,163.69,285.64,177.98z"/>
	</g>
</g>
</svg>
