<?xml version="1.0" encoding="utf-8"?>
<!-- Generator: Adobe Illustrator 25.2.1, SVG Export Plug-In . SVG Version: 6.00 Build 0)  -->
<svg version="1.1" id="Camada_1" xmlns="http://www.w3.org/2000/svg" xmlns:xlink="http://www.w3.org/1999/xlink" x="0px" y="0px"
	 viewBox="0 0 172.16 132.59" style="enable-background:new 0 0 172.16 132.59;" xml:space="preserve">
<style type="text/css">
	.st0{clip-path:url(#SVGID_2_);fill-rule:evenodd;clip-rule:evenodd;fill:#FFFFFF;}
</style>
<g>
	<defs>
		<rect id="SVGID_1_" x="-866.93" y="-553.15" width="1920" height="1080"/>
	</defs>
	<clipPath id="SVGID_2_">
		<use xlink:href="#SVGID_1_"  style="overflow:visible;"/>
	</clipPath>
	<path class="st0" d="M121.46,4.09h7.03v18.07c0,6.01,7.6,6.17,7.6,0V4.09h7v18.07c0,6.63-4.29,12.46-10.69,12.46
		c-6.14,0-10.94-5.27-10.94-12.67V4.09z M119.49,10.9h-6.59v23.52h-6.74V10.9h-6.67l0.05-6.81h19.95V10.9z M66.03,25.53v8.95h-7.48
		V4.5l6.43-0.49C73.5,3.4,77.93,7.68,77.75,15.07C77.53,21.26,71.92,25.53,66.03,25.53 M66.03,10.98v7.19
		c2.46,0.16,4.33-1.63,4.33-3.3C70.36,11.58,68.03,10.98,66.03,10.98 M154.34,22.73v11.76h-7.44v-30l6.4-1.18
		c8.33-1.5,11.88,4.17,11.99,8.72c0.07,2.29-0.57,4.43-1.8,6.11c-0.04,0.03-0.22,1.26,0.2,1.5c4.3,2.38,6.46,12.49,6.29,14.77h-7.12
		C163.15,27.09,158.78,22.73,154.34,22.73 M154.34,10.25v5.36c2.09,0.03,3.68-1.25,3.68-2.51
		C158.03,10.69,156.04,10.25,154.34,10.25 M21.25,34.56l7.78-30.52l9.22,18.99l9.64-18.88l7.63,30.33l-7.44,0.63L45.7,22.28
		l-7.45,14.57L31.1,22.06l-2.52,13.26L21.25,34.56z M2.28,34.49V4.09h17.14l-0.1,6.81H9.61v4.76h6.07v6.79h-6.2v5.24h9.85v6.8H2.28z
		 M80.35,34.49V4.09h17.14l-0.07,6.81h-9.71v4.76h6.06v6.79h-6.16v5.24h9.81v6.8H80.35z"/>
	<path class="st0" d="M9.29,78.7c17.09-12.62,33.11-17.99,46.6-17.33c4.22-1.65,8.65-2.93,13.03-3.98
		c-21.16-9.41-45.33-9.84-65.33,0.26C4.54,64.94,6.56,72.01,9.29,78.7 M119.27,124.3c-6.74,2.45-13.9,4.41-21.29,5.34
		c2.1-29.98-6.77-52.13-22.47-62.23c2.66-0.94,5.21-1.58,7.87-1.81C101.3,78.23,115.2,98.37,119.27,124.3 M164.97,78.7
		c2.85-6.7,4.91-13.77,5.7-21.05c-25.76-12.92-58.58-9.74-82.84,8.56c1.69,1.52,3.44,3.1,5.09,4.77
		C109.3,56.6,135.92,57.32,164.97,78.7 M153.75,97.6c-4.4,5.8-9.51,10.9-14.94,15.39c-8.53-24.58-21.64-39.48-35.61-45.83
		c4.29-2.03,8.96-3.19,14.03-3.4C131.02,70.07,143.72,81.05,153.75,97.6 M20.52,97.44c15.42-27.84,45.93-43.3,75.86-39.62
		c-3.28,1.78-6.55,3.73-9.65,6c-21.04,0.15-41.54,17.91-51,49.17C30.07,108.41,24.87,103.24,20.52,97.44 M76.48,129.64
		c-2.42-21.09,1.05-38.25,8.91-50.09c-1.65-2.44-3.54-4.55-5.62-6.36c-12.51,12.34-21.6,29.5-24.22,51.07
		C62.21,126.83,69.18,128.75,76.48,129.64"/>
</g>
</svg>
