<?xml version="1.0" encoding="utf-8"?>
<!-- Generator: Adobe Illustrator 25.2.1, SVG Export Plug-In . SVG Version: 6.00 Build 0)  -->
<svg version="1.1" id="Camada_1" xmlns="http://www.w3.org/2000/svg" xmlns:xlink="http://www.w3.org/1999/xlink" x="0px" y="0px"
	 viewBox="0 0 399.92 260.2" style="enable-background:new 0 0 399.92 260.2;" xml:space="preserve">
<style type="text/css">
	.st0{fill:#028BD2;}
	.st1{fill:#A5B61D;}
</style>
<g>
	<g>
		<path class="st0" d="M221.73,175.73c-16.15,0-32.31,0.18-48.45-0.11c-4.5-0.08-5.17,1.38-4.71,5.39
			c2.3,20.11,17.25,34.36,38.63,36.76c16.84,1.89,33.21-0.46,49.25-5.38c3.81-1.17,4.78-0.44,5.41,3.33
			c1.4,8.36,3.21,16.65,5.13,24.91c0.57,2.47,0.16,3.62-2.26,4.44c-29.72,10.03-59.86,13.21-90.13,3.38
			c-21.67-7.03-36.89-22.06-44.56-43.44c-12-33.45-10.32-66.53,7.05-97.86c17.57-31.69,53.66-46.12,88.59-36.44
			c21.79,6.04,35.64,20.65,43.58,41.2c7.29,18.86,8.18,38.56,6.88,58.51c-0.27,4.14-1.55,5.52-5.96,5.43
			C254.03,175.54,237.88,175.73,221.73,175.73z M200.18,142.62c9.49,0,18.97-0.11,28.46,0.07c3.06,0.06,4.12-0.83,3.88-3.93
			c-0.57-7.18-1.71-14.17-4.81-20.75c-9.12-19.38-33.27-22.94-47.49-6.89c-6.85,7.73-9.84,17.16-11.62,27.13
			c-0.65,3.64,0.63,4.53,4.13,4.45C181.87,142.48,191.03,142.62,200.18,142.62z"/>
		<path class="st0" d="M70.42,71.19c15.72,0.32,28.88,2.69,41.47,8.07c2.97,1.27,3.93,2.52,2.89,5.89c-2.6,8.41-4.91,16.93-6.9,25.5
			c-0.85,3.66-2.1,3.57-4.99,2.17c-10.48-5.08-21.48-8-33.26-7.24c-3.37,0.22-6.6,0.93-9.61,2.42
			c-10.82,5.33-12.63,18.51-3.53,26.44c5.98,5.21,13.32,8.12,20.51,11.18c8.29,3.52,16.19,7.67,23.64,12.79
			c32.5,22.29,28.61,74.51-8.86,91.14c-21.9,9.72-44.57,9.62-67.51,4.59c-6.84-1.5-13.41-3.84-19.72-6.93
			c-2.29-1.12-3.11-2.2-2.31-4.97c2.55-8.77,4.9-17.62,6.94-26.52c0.85-3.71,1.66-4.5,5.43-2.64c12.5,6.19,25.67,10.08,39.83,9.76
			c3.19-0.07,6.32-0.47,9.36-1.34c6.32-1.8,11.23-5.38,12.69-12.09c1.5-6.89,0.22-13.27-5.31-18.25
			c-5.41-4.86-11.94-7.81-18.53-10.63c-7.66-3.27-15.24-6.68-22.14-11.4C14.36,158.13,3.97,143.86,5.82,123.3
			c1.88-20.79,12.7-35.6,31.35-44.79C48.33,73.01,60.27,71.3,70.42,71.19z"/>
		<path class="st1" d="M394.34,93.24c0,28.31-0.09,56.62,0.1,84.92c0.03,4.05-1.23,5-5.06,4.94c-12.99-0.21-25.98-0.17-38.97-0.02
			c-3.02,0.03-3.95-0.8-3.95-3.91c0.09-57.12,0.09-114.23,0-171.35c0-3.1,0.92-3.96,3.96-3.92c12.99,0.15,25.98,0.2,38.97-0.02
			c3.83-0.06,5.08,0.85,5.05,4.93C394.25,36.95,394.34,65.1,394.34,93.24z"/>
		<path class="st0" d="M334.77,161.2c0,28.13-0.08,56.27,0.09,84.4c0.02,3.97-0.69,5.47-5.07,5.36
			c-12.65-0.32-25.31-0.27-37.96-0.02c-3.86,0.08-4.64-1.16-4.63-4.79c0.11-56.6,0.1-113.2,0.02-169.81
			c-0.01-3.29,0.61-4.66,4.31-4.6c12.98,0.22,25.97,0.22,38.96,0c3.62-0.06,4.38,1.17,4.36,4.54
			C334.72,104.6,334.77,132.9,334.77,161.2z"/>
		<path class="st1" d="M311.23,4.7c14.35,0.09,25.92,11.86,25.77,26.23c-0.15,14.34-11.92,25.9-26.28,25.79
			c-14.23-0.1-26.1-12.18-25.85-26.3C285.13,16.03,296.83,4.61,311.23,4.7z"/>
		<path class="st0" d="M370.18,250.71c-14.35-0.08-25.82-11.75-25.75-26.2c0.07-14.37,11.76-25.92,26.13-25.82
			c14.32,0.1,25.95,11.9,25.84,26.2C396.31,239.2,384.54,250.78,370.18,250.71z"/>
	</g>
</g>
</svg>
