<?xml version="1.0" encoding="utf-8"?>
<!-- Generator: Adobe Illustrator 25.2.1, SVG Export Plug-In . SVG Version: 6.00 Build 0)  -->
<svg version="1.1" id="Camada_1" xmlns="http://www.w3.org/2000/svg" xmlns:xlink="http://www.w3.org/1999/xlink" x="0px" y="0px"
	 viewBox="0 0 175.72 132.24" style="enable-background:new 0 0 175.72 132.24;" xml:space="preserve">
<style type="text/css">
	.st0{clip-path:url(#SVGID_2_);fill-rule:evenodd;clip-rule:evenodd;fill:#3C4898;}
</style>
<g>
	<defs>
		<rect id="SVGID_1_" x="-864.44" y="-552.79" width="1920" height="1080"/>
	</defs>
	<clipPath id="SVGID_2_">
		<use xlink:href="#SVGID_1_"  style="overflow:visible;"/>
	</clipPath>
	<path class="st0" d="M123.96,4.44h7.03v18.07c0,6.01,7.6,6.17,7.6,0V4.44h7v18.07c0,6.63-4.29,12.46-10.69,12.46
		c-6.14,0-10.94-5.27-10.94-12.67V4.44z M121.98,11.25h-6.59v23.52h-6.74V11.25h-6.67l0.05-6.81h19.95V11.25z M68.52,25.89v8.95
		h-7.48V4.85l6.43-0.49c8.52-0.61,12.95,3.67,12.77,11.06C80.03,21.62,74.41,25.89,68.52,25.89 M68.52,11.33v7.19
		c2.46,0.16,4.33-1.63,4.33-3.3C72.85,11.93,70.52,11.33,68.52,11.33 M156.84,23.08v11.76h-7.44v-30l6.4-1.18
		c8.33-1.5,11.88,4.17,11.99,8.72c0.07,2.29-0.57,4.43-1.8,6.11c-0.04,0.03-0.22,1.26,0.2,1.5c4.3,2.38,6.46,12.49,6.29,14.77h-7.12
		C165.65,27.44,161.27,23.08,156.84,23.08 M156.84,10.61v5.36c2.09,0.03,3.68-1.25,3.68-2.51
		C160.52,11.05,158.53,10.61,156.84,10.61 M23.74,34.91L31.53,4.4l9.22,18.99l9.64-18.88l7.63,30.33l-7.44,0.63L48.2,22.63
		L40.75,37.2L33.6,22.41l-2.52,13.26L23.74,34.91z M4.78,34.84V4.44h17.14l-0.1,6.81H12.1v4.76h6.07v6.79h-6.2v5.24h9.85v6.8H4.78z
		 M82.84,34.84V4.44h17.14l-0.07,6.81h-9.71v4.76h6.06v6.79h-6.16v5.24h9.81v6.8H82.84z"/>
	<path class="st0" d="M11.78,79.06c17.09-12.62,33.11-17.99,46.6-17.33c4.22-1.65,8.65-2.93,13.03-3.98
		c-21.16-9.41-45.33-9.84-65.33,0.26C7.03,65.29,9.06,72.36,11.78,79.06 M121.76,124.66c-6.74,2.45-13.9,4.41-21.29,5.34
		c2.1-29.98-6.77-52.13-22.47-62.23c2.66-0.94,5.21-1.58,7.87-1.81C103.79,78.59,117.69,98.72,121.76,124.66 M167.46,79.06
		c2.85-6.7,4.91-13.77,5.7-21.05c-25.76-12.92-58.58-9.74-82.84,8.56c1.69,1.52,3.44,3.1,5.09,4.77
		C111.8,56.95,138.41,57.68,167.46,79.06 M156.24,97.96c-4.4,5.8-9.51,10.9-14.94,15.39c-8.53-24.58-21.64-39.48-35.61-45.83
		c4.29-2.03,8.96-3.19,14.03-3.4C133.51,70.43,146.22,81.41,156.24,97.96 M23.01,97.8c15.42-27.84,45.93-43.3,75.86-39.62
		c-3.28,1.78-6.55,3.73-9.65,6c-21.04,0.15-41.54,17.91-51,49.17C32.57,108.76,27.37,103.59,23.01,97.8 M78.97,130
		c-2.42-21.09,1.05-38.25,8.91-50.09c-1.65-2.44-3.54-4.55-5.62-6.36c-12.51,12.34-21.6,29.5-24.22,51.07
		C64.7,127.19,71.68,129.11,78.97,130"/>
</g>
</svg>
