<?xml version="1.0" encoding="utf-8"?>
<!-- Generator: Adobe Illustrator 25.2.1, SVG Export Plug-In . SVG Version: 6.00 Build 0)  -->
<svg version="1.1" id="Camada_1" xmlns="http://www.w3.org/2000/svg" xmlns:xlink="http://www.w3.org/1999/xlink" x="0px" y="0px"
	 viewBox="0 0 414.89 264.71" style="enable-background:new 0 0 414.89 264.71;" xml:space="preserve">
<style type="text/css">
	.st0{fill:#33729D;}
	.st1{fill:#FEDB00;}
	.st2{fill:#FECB00;}
	.st3{fill:#FED700;}
	.st4{fill:#FEB300;}
	.st5{fill:#FEC100;}
	.st6{fill:#FE9901;}
	.st7{fill:#FEA500;}
	.st8{fill:#D3DFEC;}
	.st9{fill:#D0DEEB;}
	.st10{fill:#AEC8D8;}
	.st11{fill:#38759F;}
	.st12{fill:#F3E357;}
	.st13{fill:#FDEC01;}
	.st14{fill:#FDFEFD;}
	.st15{fill:#457DAF;}
	.st16{fill:#FDFDFD;}
	.st17{fill:#C4D6E5;}
	.st18{fill:#FCFDFD;}
	.st19{fill:#FAFCFB;}
	.st20{fill:#FCFDFB;}
	.st21{fill:#81A7C9;}
	.st22{fill:#B7CCE0;}
	.st23{fill:#A5C0D9;}
	.st24{fill:#B8CDE0;}
	.st25{fill:#9AB8D4;}
	.st26{fill:#6D98C0;}
	.st27{fill:#A9C2DA;}
	.st28{fill:#8EAFCF;}
	.st29{fill:#6F9AC2;}
	.st30{fill:#5B8CB9;}
	.st31{fill:#BDD2E4;}
	.st32{fill:#F6F9F7;}
	.st33{fill:#F4F8F9;}
	.st34{fill:#F3E207;}
	.st35{fill:#C9D9E2;}
	.st36{fill:#C2D7DC;}
	.st37{fill:#D3E2E8;}
	.st38{fill:#347098;}
	.st39{fill:#32709D;}
	.st40{fill:#3875A0;}
	.st41{fill:#3C77A0;}
	.st42{fill:#F5E202;}
	.st43{fill:#33719C;}
</style>
<g>
	<g>
		<path class="st0" d="M18.63,222c29.43-10.14,53.14-29.35,76.72-48.68c53.95-44.23,107.73-88.66,161.78-132.76
			c13.22-10.78,28.72-16.64,45.93-17.31c2.05-0.08,3.41-0.79,4.73-2.19c4.01-4.23,8.03-8.45,12.16-12.56
			c7.5-7.45,10.06-7.36,17.47,0.38c-1.01,2.41-2.25,0.58-3.26,0.09c-4.02-1.95-5.68-1.17-6.36,3.19c-0.4,2.57,0.49,4.92,1.42,7.24
			c1.07,2.04,2.23,4.03,3.11,6.17c3.54,5.87,6.33,6.44,9.17,1.87c0.96-1.4-0.03-4.02,2.67-4.34c0.7,4.76,1.6,9.57-1.42,13.93
			c-1.14,1.65,0.17,2.39,1.02,3.3c1.47,1.56,2.99,3.07,4.49,4.6c0.06,2.03-1.36,1.55-2.38,1.24c-2.06-0.62-4.05-1.45-6.23-2.74
			c3.25,12.81,7.86,24.96,10.88,37.55c0.3,1.69,0.19,3.57,2.15,4.48c5.41,1.4,10.94,2.6,13.65,8.38
			c5.23,22.18,9.91,44.48,13.6,66.96c2.59,15.75,9.25,30.16,14.01,45.19c4.87,15.37,10.28,30.58,15.45,45.86
			c-1.88,0.74-2.78-0.7-3.64-1.83c-2.62-3.47-5.9-6.31-8.9-9.42c-2.33-2.44-4.7-4.84-7.17-7.15c-3.63-2.62-6.7-5.88-10-8.87
			c-3.8-2.77-7.06-6.24-11.1-8.7c-2.94-1.75-5.86-3.53-8.81-5.28c-3.57-2.61-7.09-5.3-11.42-6.59c-5.09-2.31-10.23-4.52-15.54-6.3
			c-17.8-6.89-36.3-9.14-55.29-9.48c-33.34-0.6-65.99,4.99-98.72,9.98c-26.16,3.98-52.1,9.25-78.27,13.19
			c-0.83,0.13-1.64,0.24-2.46,0.03c-1.65-0.98-1.43-2.18-0.07-3.08c1.11-0.73,2.35-1.2,2.83-2.64c-1.15,1.78-2.8,3.05-4.8,2.42
			c-2.11-0.67-1.94-2.96-1.87-4.73c0.11-3.05-1.02-6.42,1.79-8.92c0.82-0.73,0.19-0.99-0.24-1.5c-2.68-3.2-1.52-6.93-1.3-10.49
			c0.1-1.61,1.15-2.74,2.8-3.11c1.66-0.37,2.74,0.27,3.19,2.06c0.07-2.08-0.88-2.84-2.74-2.34c-2.41,0.65-4.23,1.78-4.08,4.78
			c0.33,6.64,0.16,13.3,0.13,19.94c-0.02,2.99-0.06,6.02-2.27,8.46c-0.7,0.46-1.46,0.72-2.28,0.87
			c-20.86,3.63-41.79,6.82-62.75,9.85c-1.15,0.17-2.3,0.26-3.47,0.21C21.41,223.17,19.84,223.2,18.63,222z"/>
		<path class="st1" d="M23.22,222.11c22.07-3.39,44.13-6.77,66.2-10.16c5.29,0.86,10.49-0.56,15.54-1.42
			c8.1-1.38,16.25-1.55,24.34-2.01c23.91-1.38,47.76-3.7,71.66-4.87c19.1-0.94,38.16-2.52,57.26-3.51
			c18.92-0.98,37.85-1.95,56.73-3.61c6.49-0.57,12.93,0.12,19.4,0.23c5.28,1.36,9.93,4.25,14.93,6.29
			c-0.62,2.71-2.85,2.37-4.78,2.43c-20.96,0.62-41.81,3.09-62.75,3.73c-17.97,0.54-35.88,2.09-53.79,3.36
			c-22.4,1.58-44.83,2.75-67.23,4.39c-13.09,0.96-26.26,1.34-39.34,2.51c-23.35,2.1-46.91,1.38-70.09,5.5
			c-9.94-0.07-19.89-0.14-29.83-0.21c-1.15-0.98-2.9,0.23-4.14-1.25C18.91,221.33,21.42,223.03,23.22,222.11z"/>
		<path class="st2" d="M360.4,209.82c2.95,1.77,5.89,3.54,8.84,5.31c-0.4,2.67-2.53,2.21-4.26,2.28
			c-23.27,1.01-46.46,3.2-69.69,4.66c-12.94,0.82-25.9,1.54-38.86,2.23c-11.47,0.61-22.89,1.72-34.35,2.44
			c-9.63,0.6-19.27,0.89-28.9,1.57c-3.99,0.28-7.96,0.41-11.81,1.58c-12.02-1.09-24.05-2.18-36.07-3.28
			c-8.48-0.66-16.97-0.1-25.45-0.31c-1.82-0.04-3.66,0.31-5.45-0.32c0.63-3.29,3.51-3.19,5.76-3.42
			c14.54-1.51,29.13-2.54,43.73-3.29c16.1-0.83,32.18-1.89,48.23-3.41c9.44-0.89,18.92-0.69,28.37-1.49
			c13.07-1.11,26.18-1.91,39.27-2.65c12.94-0.73,25.85-2.07,38.8-2.37c7.67-0.18,15.27-0.74,22.87-1.64
			C347.91,206.98,354.35,206.6,360.4,209.82z"/>
		<path class="st3" d="M360.4,209.82c-17.4-2.23-34.56,1.73-51.86,1.9c-6.48,0.07-12.86,1.05-19.32,1.28
			c-13.53,0.48-27.01,2.2-40.53,2.63c-8.12,0.26-16.18,1.27-24.31,1.27c-12.57,0-25.03,1.77-37.53,2.84
			c-5.43,0.46-10.89,0.52-16.34,0.91c-12.2,0.89-24.51,0.67-36.62,2.36c-6.48,0.91-13.3-0.42-19.47,2.66
			c-0.68,0.87-1.49,0.66-2.31,0.26c-7.26,0.39-14.51,0.24-21.76-0.31c-11.21-0.68-22.42-0.1-33.63-0.32
			c-1.79-0.04-3.63,0.4-5.37-0.41c0,0-0.05,0.06-0.05,0.06c5.21-3.35,11.29-3.59,17.06-3.98c19.48-1.35,39.08-1.42,58.49-3.38
			c15.19-1.53,30.42-1.27,45.56-2.8c20.26-2.05,40.6-2.6,60.89-3.95c15.51-1.04,30.99-2.44,46.53-3.15
			c18.48-0.84,37-1.66,55.41-3.74c3.28-0.37,6.66-0.19,9.96,0.1c1.61,0.15,2.93,0.22,4.07-1.01
			C353.42,204.58,357.18,206.75,360.4,209.82z"/>
		<path class="st4" d="M380.37,223.83c3.35,3,6.69,5.99,10.04,8.99c-1.92,1.95-4.5,2.07-6.94,2.32
			c-12.06,1.26-24.19,1.43-36.29,2.15c-15.24,0.91-30.47,2.08-45.72,2.84c-15.26,0.76-30.47,2.22-45.71,3.25
			c-4.14,0.28-8.25,0.89-12.37,1.36c-9.34-2.62-18.68-5.24-28.02-7.87c-0.73-1.05-3.09,0.16-2.92-1.87
			c0.12-1.48,1.55-2.08,2.91-2.34c4.11-0.79,8.29-0.29,12.44-0.78c12.56-1.47,25.2-1.9,37.82-2.57c16.94-0.9,33.85-2.16,50.76-3.48
			c7.96-0.62,15.94-0.99,23.9-1.43c9.63-0.53,19.26-1.03,28.86-1.92C372.98,222.14,376.76,222.24,380.37,223.83z"/>
		<path class="st5" d="M380.37,223.83c-20.36,0.32-40.63,2.32-60.96,3.3c-13.17,0.63-26.35,1.9-39.53,2.72
			c-21.28,1.33-42.56,2.66-63.84,4.01c-1.1,0.07-2.6-0.22-2.76,1.26c-0.06,0.5,1.34,1.17,2.07,1.76
			c-11.33-2.32-22.65-4.65-33.98-6.97c1.76-3.56,5.23-2.83,8.14-3.01c18.5-1.11,37.03-1.78,55.51-3.16c16-1.2,32-2.21,48.03-3
			c16.33-0.8,32.59-2.89,48.92-3.65c8.24-0.39,16.47-2.32,24.77-0.9c1.21,0.21,1.9-0.13,2.49-1.04
			C373.49,217.34,376.67,220.91,380.37,223.83z"/>
		<path class="st6" d="M397.44,239.78c3.98,4.02,7.97,8.04,11.95,12.06c-0.06,2.71-2.39,1.79-3.65,2
			c-31.51,5.06-63.31,5.49-95.06,4.73c-13.89-0.33-27.94-2.21-41.34-6.78c0.36-3.88,3.48-4.34,6.19-4.29
			c11.35,0.18,22.58-1.33,33.85-2.17c19.56-1.46,39.19-1.75,58.74-3.63C377.85,240.76,387.64,239.92,397.44,239.78z"/>
		<path class="st7" d="M397.44,239.78c-5.48,3.78-12.04,2.42-17.88,2.71c-11.71,0.6-23.39,1.73-35.07,2.52
			c-17.6,1.19-35.3,0.75-52.8,3.68c-5.01,0.84-10.27,0.16-15.42,0.13c-2.76-0.02-5.31,0.35-6.92,2.96c-8.95-1.28-17.51-4-25.98-7.05
			c2.09-3.3,5.79-2.07,8.63-2.63c5.31-1.04,10.85-0.86,16.28-1.28c12.17-0.93,24.34-1.92,36.52-2.89c6.26-0.5,12.52,0.03,18.84-0.89
			c7.49-1.1,15.19-0.67,22.78-1.25c14.66-1.12,29.39-1.05,43.99-2.98C393.13,234.76,395.44,237.11,397.44,239.78z"/>
		<path class="st8" d="M349.36,81.75c-3.75-12.96-7.49-25.93-11.24-38.9c4.07-1.2,6.5,3.14,10.15,2.08
			c4.13,6.67,8.58,13.2,9.93,21.18c-2.82,3.68-4.76,7.75-5.68,12.33C352.19,80.06,352.07,82.24,349.36,81.75z"/>
		<path class="st9" d="M366.33,93.84c-4.01-4.29-8.92-6.66-14.8-6.99c-1.95-7.47,1.74-13.07,9.87-14.97
			C363.05,79.2,364.69,86.52,366.33,93.84z"/>
		<path class="st10" d="M344.18,23.11c-1.9,1.27-0.34,3.67-1.67,5.13c-2.17-1.53-0.99-4.21-2.11-6.09c-0.95-3.7-2.62-7.03-5.19-9.89
			c-1.15-1.28-2.48-2.36-4.27-1.66c-1.85,0.72-1.02,2.51-1.19,3.89c-0.05,2.16,0.38,4.4-1.04,6.33c-1.69-1.42-1.62-3.55-1.98-5.42
			c-0.6-3.14-0.57-6.49,2.31-8.51c3.01-2.12,5.1,0.53,7.24,2.23c0.44,0.35,0.87,0.32,1.16-0.23
			C341.32,12.85,343.44,17.65,344.18,23.11z"/>
		<path class="st11" d="M361.41,71.88c-0.22,0.57-0.3,1.53-0.68,1.66c-6.88,2.45-9.48,6.17-9.19,13.31
			c-1.74-1.27-1.82-3.24-2.17-5.09c2.87-1.5,1.68-4.64,2.75-6.89c1.56-3.27,1.61-7.52,6.08-8.75
			C360.01,67.62,360.79,69.71,361.41,71.88z"/>
		<path class="st1" d="M51.34,224.91c11.75-0.02,23.49-0.05,35.24-0.05c1.29,0,2.68-0.29,3.76,0.78
			C77.33,225.7,64.32,226.24,51.34,224.91z"/>
		<path class="st1" d="M112.1,225.94c0.77-0.09,1.54-0.17,2.31-0.26c8.56,0.05,17.12,0.08,25.67,0.19c1.75,0.02,3.64-0.58,5.23,0.75
			C134.24,226.5,123.15,227.1,112.1,225.94z"/>
		<path class="st12" d="M23.22,222.11c-1.32,1.34-3.13,0.43-4.88,1.13c1.14,0.55,2.13,1.03,3.11,1.51c-4.27,0-8.54,0-12.81,0
			c-0.05-0.23-0.09-0.46-0.14-0.69c3.38-0.69,6.76-1.38,10.14-2.07C20.16,222.04,21.69,222.08,23.22,222.11z"/>
		<path class="st13" d="M334.33,196.76c-0.63,0.95-1.59,1.08-2.62,1.09c-7.78,0.08-15.54,0.31-23.33,0.86
			c-15.33,1.09-30.7,1.51-46,3.04c-6.24,0.63-12.56,0.57-18.83,0.87c-13.88,0.67-27.71,2.06-41.63,2.44
			c-15.48,0.42-30.92,2.48-46.39,3.71c-5.11,0.41-10.23,0.57-15.34,0.9c-15.98,1.03-32.07,0.69-47.86,4.02
			c-1.46,0.31-2.68,0.08-2.92-1.74c0.76-0.11,1.52-0.22,2.28-0.33c1.6-1.64,3.34-2.41,5.47-0.91c17.55-3.19,35.19-5.91,52.73-9.13
			c11.48-2.11,22.99-4.01,34.5-5.85c14.8-2.37,29.68-4.34,44.58-6.16c18.63-2.27,37.23-3.58,55.96-2.76
			C301.88,187.56,318.54,190.09,334.33,196.76z"/>
		<path class="st14" d="M312.73,134.07c-0.01,12.77-1.5,25.25-7.36,36.85c-0.74,1.47-1.66,2.88-2.66,4.2
			c-8.05,10.54-20.21,10.2-27.82-0.74c-5.68-8.17-8.1-17.48-9.13-27.15c-1.68-15.66,0.11-30.91,6.75-45.35
			c3.21-6.99,7.78-12.72,15.24-15.73c5.23-2.11,9.18-1.56,13.11,2.57c6.91,7.25,8.81,16.58,10.52,25.95
			C312.55,121.07,312.73,127.57,312.73,134.07z"/>
		<path class="st15" d="M121.67,165.99c-1.31,0.26-3.58-1.15-3.28,1.89c0.35,2.42-2.78,2.11-3.12,3.99
			c-3.54-3.88-6.78,0.15-10.4,0.07c31.49-23.35,62.98-46.71,94.47-70.06c1.51,1.43,2.17,3.42,3.31,5.1
			c-0.41,2.52-2.69,3.24-4.41,4.39c-15.51,10.45-31.17,20.66-46.81,30.91c12.91-8.16,25.45-16.91,38.49-24.87
			c1.38-0.85,2.64-2.1,4.51-1.73c1.8,2.99,3.48,6.04,4.95,9.22c-1.1,0.71-2.15,1.52-3.31,2.11c-24.19,12.33-48.4,24.65-72.61,36.94
			c-0.95,0.48-1.7,1.01-1.87,2.11L121.67,165.99z"/>
		<path class="st16" d="M256.75,102.74c0,7.57,0,15.14,0,23.46c-1.96-2.83-1.5-5.79-2.63-8.19c-1.65-3.48-3.15-7.45-7.84-7.26
			c-4.79,0.19-6.61,4.07-7.76,7.99c-1.95,6.65-0.15,10.6,6.01,14.1c15.68,8.91,20.09,23.8,11.84,40c-4.03,7.91-9.09,9.99-17.4,7.16
			c-3.12-1.06-3.12-1.06-6.43,4.23c0-8.9,0-16.94,0-26.51c1.55,5.77,2.13,10.36,4.61,14.27c2.1,3.33,4.45,6.58,9,5.81
			c4.48-0.75,5.89-4.54,6.86-8.32c1.82-7.13-0.74-12.68-8.14-16.89c-6.46-3.68-11.94-7.94-12.94-15.94
			c-1.2-9.54,1.1-18.17,7.15-25.63c2.49-3.06,5.94-5.49,10.03-4.12c4.58,1.53,6.6,0.32,6.29-5.33
			C255.84,101.97,256.3,102.35,256.75,102.74z"/>
		<path class="st17" d="M300.38,40.02c10.41-2.59,20.72-1.14,31.02,0.81c1.39,0.26,1.9,1.06,2.21,2.29
			c3.18,12.71,6.41,25.42,9.54,38.14c0.11,0.45-0.57,1.09-0.88,1.63c-0.21-0.12-0.42-0.23-0.63-0.34
			c-7.19-9.63-15.76-17.39-27.72-20.6c-0.98-0.26-1.82-0.8-2.1-1.9c0.57-2.47,0.32-4.52-1.3-6.82
			C307.31,48.69,305.1,43.41,300.38,40.02z"/>
		<path class="st18" d="M223.76,118.83c0,6.42,0,12.84,0,20.38c-1.17-3.65-1.83-6.45-2.96-9.05c-1.07-2.48-2.74-4.88-5.75-4.94
			c-3.2-0.06-5.01,2.26-6.34,4.91c-3.1,6.18-1.52,11.32,4.52,14.73c13.77,7.78,17.69,22.91,9.45,36.41
			c-3.63,5.93-7.76,7.64-14.17,5.02c-3.41-1.4-4.23,1.08-6.07,3.75c0-7.85,0-14.61,0-22.9c1.26,4.17,1.93,7.04,2.99,9.75
			c2.04,5.24,6.08,8.51,9.33,7.43c4.97-1.66,5.75-6.04,5.98-10.5c0.23-4.29-1.33-7.82-5.07-10.2c-0.7-0.45-1.37-0.95-2.07-1.4
			c-12.93-8.2-15.62-22.36-6.56-34.95c2.89-4.02,6.35-6.75,11.86-5C221.41,123.06,221.5,122.76,223.76,118.83z"/>
		<path class="st19" d="M180.87,163.84c6.76-3.45,5.14-9.62,7.31-15.14c0,9.79,0,18.63,0,28.65c-0.96-3.64-1.53-6.18-2.32-8.65
			c-0.43-1.33-1.45-2.27-3.03-2.1c-1.98,0.21-1.62,1.78-1.61,3.04c0.03,5.16,0.22,10.32,0.15,15.48c-0.06,3.98,1.96,4.44,5.13,3.48
			c5.33-1.62,7.23-6.02,8.65-10.75c0.56-1.87,0.87-3.82,2.08-5.67c-0.32,5.26-0.68,10.52-0.95,15.79c-0.1,1.84-1.42,2.04-2.72,2.29
			c-7.61,1.52-15.23,3.01-23.22,4.19c3.72-2.03,3.79-5.33,3.74-8.72c-0.18-12.15-0.31-24.3-0.47-36.45
			c-0.03-2.48,0.3-5.27-3.84-5.28c7.47-3.53,14.94-7.04,22.4-10.6c1.8-0.86,2.41-0.24,2.4,1.58c-0.02,4.44-0.01,8.88-0.01,13.47
			c-1.53-0.79-1.02-2.12-1.24-3.14c-1.49-6.73-6-8.37-11.29-4.06c-0.68,0.56-1.16,1.13-1.16,2.06
			C180.87,149.91,180.87,156.49,180.87,163.84z"/>
		<path class="st20" d="M168.96,194.59c-7.46,2.92-7.5,2.88-10.48-4.06c-1.77-4.12-3.63-8.19-5.49-12.27
			c-0.1-0.22-0.56-0.27-0.85-0.39c-2.35,5.43-1.25,17.43,1.82,19.79c-0.25,0.2-0.48,0.5-0.77,0.56c-3.56,0.74-7.12,1.44-12.25,2.47
			c4.46-2.66,4.27-5.86,4.22-9.02c-0.14-9.81-0.25-19.61-0.42-29.42c-0.04-2.04,0.6-4.62-2.98-5.05c4.78-2.18,9.5-4.51,14.36-6.5
			c4.29-1.75,6.77-0.57,7.96,3.79c1.69,6.21,1.2,12.32-2.8,17.55c-1.6,2.09-1.67,3.6-0.55,5.73
			C163.64,183.3,164.89,189.64,168.96,194.59z"/>
		<path class="st21" d="M266.3,90.87c-8.32,5.02-17.07,9.19-25.95,13.11c-1.99-4.48-5.71-8.07-6.7-13.07
			c6.8-6.32,14.36-11.33,23.5-13.61C263.04,79.91,264.78,85.32,266.3,90.87z"/>
		<path class="st22" d="M300.38,40.02c5.14,0.81,6.59,5.32,8.93,8.92c1.23,1.9,1.89,4.08,3.87,5.61c2.64,2.05-0.22,3.71-0.9,5.5
			c-2.78,2.18-5.76,0.61-8.66,0.44c-2.16-0.12-4.32-0.09-6.48-0.15c-4.12,0.31-6.81-1.25-8.06-5.46c-0.69-2.34-2.46-4.22-4.26-5.95
			c-1.13-1.08-2.82-1.88-2.43-3.93C288.04,42.12,293.93,40.07,300.38,40.02z"/>
		<path class="st23" d="M282.38,45.02c3.85,3.47,7.88,6.74,9.1,12.25c0.62,2.79,3.33,1.13,5.01,1.74c-0.11,1.5-1.28,1.9-2.41,2.01
			c-8.47,0.78-16.48,3.3-24.41,6.17c-0.93,0.33-1.93,0.44-2.93,0.39c-3.26-2.92-5.07-6.72-6.48-10.76
			C266.99,51.67,274.26,47.55,282.38,45.02z"/>
		<path class="st24" d="M342.27,82.9c1.23,3.83-1.59,1.79-2.61,1.62c-7.14-1.16-14.25-2.48-21.37-3.75
			c-1.76-0.79-3.61-0.28-5.41-0.37c-3.72-0.19-8.52,1.71-8.15-5.26c0.09-1.71-2.15-3.24-3.36-4.83c-1.05-1.38-2.88-2.48-2-4.7
			c10.26-2.87,19.53,0.43,28.51,4.84c5.85,2.87,10.76,7.03,14.46,12.48L342.27,82.9z"/>
		<path class="st25" d="M266.3,90.87c-3.32-4.14-4.2-9.96-9.02-13.07c-0.08-0.72,0.12-1.41,0.75-1.71
			c6.72-3.19,13.2-7.04,20.86-7.67c3.78,1.95,6.92,4.44,8.41,8.7c0.8,2.28,0.89,4.19-0.94,5.93
			C279.68,85.65,272.99,88.26,266.3,90.87z"/>
		<path class="st26" d="M234.36,90.92c0.69,3.15,3.32,5.18,4.72,7.95c0.87,1.72,1.32,3.29,1.27,5.12
			c-6.67,4.25-13.99,7.27-20.99,10.87c-2.59-3.41-6.14-6.26-6.48-11C219.46,98.57,225.82,92.93,234.36,90.92z"/>
		<path class="st27" d="M286.37,83.04c1.06-5.4-1.41-10.06-6.53-12.12c-1.22-0.49-0.73-1.14-0.48-1.86
			c6.13-4.32,12.73-5.75,19.96-3.2c1.94,2.43,3.75,4.97,5.85,7.25c1.86,2.01,3.24,3.86,0.46,6.26c4.58,1.37,8.83-0.69,12.66,1.41
			C307.59,80.58,296.89,80.62,286.37,83.04z"/>
		<path class="st28" d="M260.26,56.81c2.74,2.95,5.19,6.07,6.12,10.12c0.29,1.25-0.56,1.93-1.44,2.3
			c-8.9,3.76-16.81,9.32-25.35,13.72c-0.44,0.23-0.95,0.28-1.45,0.31c-2.36-1.9-4.82-3.75-3.81-7.38
			C242.98,69.53,251.62,63.17,260.26,56.81z"/>
		<path class="st29" d="M234.34,75.88c0.34,2.82,3.24,4.23,3.8,6.93c0.85,1.78-0.71,2.41-1.68,3.03
			c-9.95,6.37-19.46,13.41-29.53,19.6c-1.35,0.83-2.68,2.1-4.56,1.48c-2.83-0.58-2.85-2.86-3.04-5.04
			C211,93.21,222.67,84.55,234.34,75.88z"/>
		<path class="st19" d="M121.59,166.06c3.51-1.38,7.02-2.75,10.52-4.16c3.9-1.57,6.08,0.17,7.12,3.79c2.1,7.34-0.81,14.38-7.39,18.3
			c-0.68,0.4-1.81,1-1.79,1.47c0.24,5.62-1.4,11.47,1.91,16.97c-2.84,0.54-5.72,1.09-10.21,1.94c3.53-2.57,3.42-5,3.4-7.44
			c-0.06-7.66-0.21-15.32-0.06-22.98c0.07-3.32-0.48-6.09-3.43-7.97C121.67,165.99,121.59,166.06,121.59,166.06z"/>
		<path class="st30" d="M213.4,103.98c1.08,4.12,5.43,6.44,5.96,10.87c-6.34,3.98-13.01,7.31-19.98,10.05
			c-3.25-2.11-4.63-5.26-4.98-8.98C199.82,110.48,205.96,106.2,213.4,103.98z"/>
		<path class="st31" d="M367.38,123.95c0.02,4.24-0.5,8.35-2.83,11.98c-2.96,4.59-7.13,5.26-11.49,2
			c-9.04-6.76-13.58-26.63-8.38-36.68c3.08-5.95,8.45-6.86,13.42-1.87C364.81,106.13,367.03,114.73,367.38,123.95z"/>
		<path class="st32" d="M113.65,183.9c1.05,7.27,4.38,13.77,6.8,20.68c-2.12,0.42-4.24,1.46-6.74,1.13
			c1.45-4.43-1.47-7.88-2.34-11.77c-0.66-0.57-1.65-0.97-1.03-2.15c-1.58-4.18-2.67-8.65-4.9-12.44c-2.18-3.71-0.99-5.03,2.35-6.1
			c0.92-0.3,1.79-0.76,3.18-1.37c-2.26,4.31,0.57,7.38,1.51,10.81C112.83,183.13,113.43,183.33,113.65,183.9z"/>
		<path class="st33" d="M97.16,210.71c-1.82,0.3-3.65,0.61-5.47,0.91c1.06-9.57,0.89-19.17,0.18-28.75
			c-0.14-1.85,0.46-2.33,1.69-2.91c2.23-1.04,4.46-2.05,7.27-3.35c0.15,2.61,0.27,4.67,0.39,6.92c-1.57-1.07-1.32-4.16-4.07-3.36
			c-2.47,0.72-1.77,2.85-1.82,4.58c-0.06,1.83-0.07,3.66,0.02,5.49c0.05,1-0.76,3.3,1.8,1.35c1.33-1.02,1.22,0.54,1.15,1.14
			c-0.13,1.18,0.76,2.75-0.61,3.46c-0.7,0.36-2.49-1.99-2.35,0.96c0.16,3.31,0.04,6.65,0.5,9.91c0.15,1.06,1.67,0.43,2.53-0.09
			c1.32-0.81,1.94-2.15,2.35-3.8C104.24,208.31,98.26,208.23,97.16,210.71z"/>
		<path class="st34" d="M328.71,20.82c-0.08-2.49-0.16-4.97-0.25-7.46c0.6-2.31,2.28-2.64,4.23-2.16c5.81,1.42,9.25,13.21,5.12,17.5
			c-0.46,0.48-1.13,0.66-1.77,0.82c-2.66-0.09-3.69-2.13-4.81-4.06C330.39,23.91,329.55,22.36,328.71,20.82z"/>
		<path class="st35" d="M113.65,183.9c-0.39-0.41-0.77-0.82-1.16-1.22c2.02-3.32,3.43-6.8,2.78-10.81
			c-1.53-3.34,2.48-2.35,3.12-3.99c0.63,0.01,1.76,0.28,1.43,0.73C116.51,173.23,116.75,179.24,113.65,183.9z"/>
		<path class="st36" d="M331.24,25.46c1.32,1.17,2.64,2.33,3.95,3.5c3.19,0.7,4.59-0.75,4.77-3.85c0.09-1.47,0.09-3.02,1.3-4.16
			c1.99,2.17,0.48,4.92,1.24,7.3c-0.48,2.33-1.59,4.34-4.25,3.84C334.65,31.41,331.95,29.39,331.24,25.46z"/>
		<path class="st37" d="M110.34,191.79c0.34,0.72,0.69,1.43,1.03,2.15c-2.15,3.69-4.85,7.19-2.91,11.94
			c0.56,1.37-0.29,1.69-4.98,1.69C106.93,202.71,107.53,196.79,110.34,191.79z"/>
		<path class="st38" d="M341.27,20.93c0.01,1.66,0.22,3.34-0.01,4.96c-0.54,3.76-2.3,5.49-6.06,3.06c4.12-2.56,4.62-7.59,0.95-13.09
			c-1.76-2.64-3.72-6.02-7.69-2.51c-0.16-1.94,0.04-3.78,2.27-4.41c1.77-0.5,3.29,0.27,4.5,1.53
			C338.1,13.45,340.2,16.9,341.27,20.93z"/>
		<path class="st0" d="M301.26,144.78c0.27,7.18-0.16,14.32-1.84,21.32c-0.54,2.25-1.26,4.5-2.25,6.58
			c-1.26,2.63-3.21,4.83-6.42,4.88c-3.19,0.05-5.2-2-6.55-4.66c-1.05-2.07-2.18-4.18-2.73-6.41c-5.01-20.42-6.67-41.02-2.89-61.85
			c0.69-3.78,1.95-7.43,4.39-10.51c3.9-4.94,8.41-4.53,11.32,1.05c2.97,5.7,4.11,11.97,4.8,18.24
			C300.23,123.83,301.54,134.25,301.26,144.78z"/>
		<path class="st39" d="M213.4,103.98c-6.33,3.98-12.67,7.96-19,11.94c-15.25,9.64-30.51,19.29-45.76,28.93
			c-0.22-0.33-0.44-0.66-0.67-0.98c18.13-12.32,36.27-24.63,54.4-36.95c10.65-7.01,21.31-14.01,31.94-21.06
			c1.35-0.9,2.55-2.03,3.82-3.05c8.97-6.08,18.68-10.86,28.25-15.89c9.7-3.93,19.78-6.38,30.11-7.92c5.26,0.35,10.52,0.7,15.79,1.05
			c10.75,3.07,19.91,8.62,26.88,17.48c1.29,1.64,3.08,3.04,3.19,5.4c-6.44-5.5-12.76-11.12-20.96-14.04
			c-7.17-2.55-14.48-3.67-22.07-3.03c-6.9-0.45-13.46,1.21-19.96,3.2c-7.78,1.83-15.03,5.04-22.07,8.74
			c-8.31,3.2-15.62,8.15-22.93,13.12C227.38,95.27,220.39,99.63,213.4,103.98z"/>
		<path class="st40" d="M150.68,165.07c0-2.48,0.08-4.96-0.02-7.44c-0.09-2.13,1.28-2.85,2.91-3.42c1.61-0.57,2.87-0.14,3.88,1.27
			c2.3,3.21,1.27,14.66-1.65,17.48c-1.08,1.04-2.45,2.22-3.88,1.87c-1.98-0.48-0.99-2.48-1.1-3.81c-0.16-1.97-0.04-3.96-0.04-5.95
			C150.74,165.07,150.71,165.07,150.68,165.07z"/>
		<path class="st41" d="M134.59,172.38c-0.03,2.69-0.19,5.34-1.61,7.72c-0.5,0.85-1.12,1.89-2.22,1.75
			c-1.35-0.17-1.07-1.46-1.08-2.39c-0.06-3.82-0.08-7.64-0.09-11.46c0-1.29-0.31-2.86,1.53-3.18c1.93-0.33,2.69,1.13,3.01,2.62
			C134.46,169.05,134.45,170.73,134.59,172.38z"/>
		<path class="st42" d="M351.28,132.87c-4.89-6.15-7.19-13.09-6.46-20.97c0.02-3.15,0.69-6.11,3.96-7.32
			c3.39-1.26,5.75,0.98,7.71,3.25c5.32,6.15,6.36,13.44,4.47,21.03C359.63,134.19,356.06,135.4,351.28,132.87z"/>
		<path class="st43" d="M351.28,132.87c5.83,1.15,8.12-0.42,9.1-6.39c0.92-5.63-0.29-10.89-3.1-15.78c-1.6-2.78-3.6-5.62-7.19-5.31
			c-3.56,0.31-4.35,3.63-5.27,6.5c-0.42-1.3-0.35-2.58,0.03-3.89c1-3.38,1.93-7,5.85-7.96c4.21-1.03,6.96,1.82,9.02,4.86
			c5.02,7.44,7,15.7,4.78,24.52C362.45,137.52,357.35,138.73,351.28,132.87z"/>
	</g>
</g>
</svg>
